<svg width="332" height="280" viewBox="0 0 332 280" fill="none" xmlns="http://www.w3.org/2000/svg">
<path fill-rule="evenodd" clip-rule="evenodd" d="M326.279 278.403C326.652 278.884 323.519 277.942 318.803 278.403C316.261 278.071 313.272 277.97 310 278.002C306.327 278.034 302.644 278.2 298.303 278.403C289.621 278.165 279.25 278.229 267.674 278.403C256.098 278.648 243.316 278.243 229.81 278.403C216.305 278.682 202.075 278.169 187.605 278.403C173.135 278.782 158.423 278.157 143.953 278.403C129.483 278.367 115.253 279.085 101.748 278.403C88.2419 277.935 75.4599 278.099 63.8839 278.403C58.0959 278.14 52.6089 278.192 47.4839 278.284C42.3589 278.376 37.5959 278.508 33.2549 278.403C28.8819 278.694 24.9059 278.731 21.5579 278.677C18.6939 278.623 14.2379 278.477 12.7549 278.403C8.59992 278.577 4.85692 279.094 5.27892 278.403C2.85092 277.967 1.07192 276.202 1.27892 273.533C0.747915 273.742 1.09592 269.835 1.27892 265.456C1.50892 262.671 1.06092 259.426 1.27892 255.771C1.39292 252.117 1.75692 248.055 1.27892 243.635C0.861915 239.054 1.58592 234.051 1.27892 228.702C1.24092 223.352 1.16492 217.656 1.27892 211.689C1.28792 202.737 0.927915 193.176 1.27892 183.259C1.60892 173.341 1.14992 163.068 1.27892 152.693C1.95792 142.317 0.880915 131.841 1.27892 121.516C0.923915 111.192 0.0579154 101.02 1.27892 91.255C0.857915 83.443 2.73992 75.892 1.27892 68.731C1.88792 61.57 1.76492 54.8 1.27892 48.55C1.37492 42.575 1.64692 36.928 1.27892 31.823C1.13092 26.718 1.15492 22.154 1.27892 18.344C0.879915 11.362 1.77592 7.42902 1.27892 6.88702C1.55992 3.96502 2.77592 2.24802 5.27892 2.01702C5.38092 1.99102 7.50192 2.84702 12.7549 2.01702C14.4769 1.63902 17.7869 1.82802 21.5579 2.01702C24.6119 2.20602 29.3689 2.39502 33.2549 2.01702C37.5959 2.04402 42.3589 1.98902 47.4839 1.95502C52.6089 1.92202 58.0959 1.90802 63.8839 2.01702C75.4599 1.90702 88.2419 1.68402 101.748 2.01702C115.253 2.76402 129.483 3.12302 143.953 2.01702C158.423 1.61502 173.135 2.28202 187.605 2.01702C202.075 2.58402 216.305 1.34802 229.81 2.01702C243.316 2.01602 256.098 3.14002 267.674 2.01702C279.25 2.33802 289.621 2.13702 298.303 2.01702C302.644 2.53702 306.563 2.43002 310 2.24702C313.672 2.06402 316.677 1.80402 318.803 2.01702C323.545 2.31502 326.492 1.29502 326.279 2.01702C327.483 2.45502 330.689 3.78902 330.279 6.88702C330.678 6.57202 329.775 10.63 330.279 18.344C330.796 22.096 330.251 26.487 330.279 31.521C330.244 36.554 330.201 42.229 330.279 48.55C330.223 54.8 330.294 61.57 330.279 68.731C329.235 75.892 330.136 83.443 330.279 91.255C330.65 101.02 330.079 111.192 330.279 121.516C330.38 131.841 330.711 142.317 330.279 152.693C331.656 163.068 329.196 173.341 330.279 183.259C330.601 193.176 330.02 202.737 330.279 211.689C330.254 217.656 330.371 223.276 330.279 228.588C330.502 233.9 330.809 238.903 330.279 243.635C329.747 248.366 329.383 252.689 330.279 256.395C330.982 260.101 330.881 263.191 330.279 265.456C330.304 270.745 330.323 273.836 330.279 273.533C330.94 276.627 328.994 278.524 326.279 278.403Z" fill="#F6F6F8"/>
<path fill-rule="evenodd" clip-rule="evenodd" d="M326.385 277.717C326.324 277.719 326.267 277.729 326.206 277.748C326.124 277.763 326.048 277.785 325.983 277.824C325.917 277.721 325.333 277.806 324.978 277.776C324.186 277.71 323.398 277.64 322.603 277.613C319.961 277.522 317.363 277.502 314.717 277.386C309.874 277.174 305.008 277.418 300.168 277.639C295.273 277.862 290.33 277.569 285.427 277.568C280.181 277.566 274.934 277.621 269.689 277.694C247.9 278.001 226.074 277.87 204.283 277.698C192.921 277.608 181.562 277.913 170.199 277.816C158.841 277.72 147.489 277.634 136.13 277.766C124.99 277.895 113.849 278.238 102.713 277.768C91.8045 277.307 80.8715 277.361 69.9585 277.582C63.9275 277.704 57.9115 277.489 51.8795 277.543C46.2355 277.593 40.5905 277.818 34.9455 277.752C29.5845 277.689 24.2335 278.078 18.8625 277.932C16.8445 277.877 14.8165 277.728 12.7975 277.723C11.8455 277.721 6.08551 277.718 5.96051 278.41C6.01151 278.128 5.76051 277.81 5.49251 277.747C3.30351 277.232 1.93351 275.892 1.96051 273.539C1.96451 273.266 1.79551 272.927 1.49251 272.877C1.88951 272.943 1.68051 271.723 1.69351 271.222C1.71851 270.206 1.78051 269.191 1.83051 268.177C1.94551 265.893 2.05251 263.632 1.97951 261.346C1.82951 256.669 2.29151 252.015 2.18951 247.341C2.08451 242.496 1.95051 237.734 2.02751 232.881C2.10751 227.783 1.89051 222.671 1.90251 217.569C1.94751 196.755 1.84751 175.943 1.94151 155.129C1.96551 149.761 2.23551 144.419 2.11451 139.045C1.99751 133.851 1.78751 128.656 1.90251 123.46C2.02351 118.021 1.53251 112.57 1.39251 107.131C1.26251 102.117 1.45851 97.1738 1.85251 92.1778C2.24451 87.2088 2.31351 82.0628 2.48651 77.0628C2.55951 74.9488 2.53851 72.8278 2.28951 70.7248C1.94551 67.8118 2.25451 64.9488 2.33151 62.0248C2.46451 57.0258 1.94651 52.0578 1.98851 47.0708C2.03151 41.9768 2.18851 36.9218 1.96051 31.8298C1.76051 27.3328 2.00151 22.8448 1.96051 18.3508C1.92951 14.8878 2.19651 11.3878 2.11351 7.93482C2.05251 5.37682 2.65551 2.67582 5.78551 2.82982C6.98051 2.88882 8.12951 3.08982 9.34251 3.04482C11.3325 2.97082 13.2765 2.51682 15.2665 2.48382C19.6115 2.41182 23.9485 2.93182 28.2955 2.91582C32.8055 2.89882 37.3165 2.70982 41.8315 2.67782C51.7665 2.60682 61.7005 2.72082 71.6335 2.61582C81.9485 2.50782 92.3205 2.25882 102.628 2.74782C113.113 3.24582 123.59 3.59982 134.087 3.23782C144.66 2.87282 155.15 2.52682 165.736 2.64682C176.445 2.76882 187.167 2.90582 197.874 2.84582C208.203 2.78782 218.517 2.30882 228.846 2.65482C239.139 2.99982 249.542 3.40782 259.84 3.14782C264.885 3.02082 269.849 2.78082 274.901 2.83782C279.797 2.89382 284.694 2.87282 289.59 2.81682C294.008 2.76582 298.341 2.88282 302.747 3.03982C307.294 3.20282 311.809 2.68182 316.349 2.62182C318.158 2.59882 319.952 2.79782 321.762 2.72782C322.628 2.69482 323.487 2.61582 324.348 2.53982C324.632 2.51482 324.99 2.55082 325.254 2.45782C325.874 2.23982 325.591 2.78382 325.596 2.01182C325.595 2.33582 325.768 2.56282 326.064 2.67382C327.984 3.39782 329.72 4.60582 329.596 6.88182C329.591 7.00782 329.638 7.13082 329.706 7.24382C329.704 7.24582 329.703 7.24582 329.702 7.24782C329.649 7.31782 329.733 7.50082 329.689 7.57882C329.562 7.80282 329.632 8.44182 329.615 8.71382C329.517 10.2248 329.448 11.7358 329.44 13.2498C329.419 17.2748 329.891 21.2498 329.753 25.2778C329.452 34.0388 329.609 42.8038 329.579 51.5678C329.565 56.1578 329.594 60.7488 329.599 65.3388C329.603 69.8408 329.027 74.2898 329.128 78.8058C329.337 88.2588 329.781 97.6568 329.647 107.119C329.51 116.785 329.699 126.439 329.789 136.104C329.833 140.821 329.83 145.539 329.685 150.254C329.536 155.1 330.125 159.912 329.893 164.784C329.667 169.536 329.219 174.287 329.332 179.049C329.444 183.722 329.724 188.362 329.682 193.043C329.6 202.47 329.587 211.887 329.626 221.314C329.647 226.324 329.805 231.315 329.879 236.323C329.951 241.19 329.096 245.967 329.055 250.82C329.018 255.336 330.651 259.727 329.854 264.25C329.315 267.323 329.921 270.452 329.604 273.545C329.608 273.544 329.612 273.543 329.615 273.542C329.611 273.595 329.599 273.646 329.608 273.7C329.974 276.068 328.811 277.658 326.385 277.717ZM330.289 7.55582C330.329 7.54982 330.368 7.56382 330.411 7.54782C330.367 7.56382 330.327 7.56482 330.289 7.55582ZM331.189 240.683C331.398 236.201 330.928 231.737 330.979 227.26C331.086 217.769 330.826 208.281 330.97 198.791C331.115 189.212 330.397 179.622 330.956 170.065C331.238 165.253 331.579 160.434 331.253 155.614C330.923 150.745 331.178 145.879 331.178 140.998C331.178 131.137 330.837 121.279 330.953 111.418C331.065 101.949 331.064 92.5288 330.643 83.0658C330.43 78.2228 330.647 73.5578 330.961 68.7378C331.264 64.0938 330.942 59.3308 330.94 54.6758C330.935 44.7428 330.805 34.8038 331.13 24.8738C331.275 20.4248 330.7 16.0168 330.836 11.5668C330.863 10.6638 331.602 7.51882 330.947 6.53482C330.918 3.95282 329.087 2.41882 326.802 1.49082C326.07 0.496816 323.014 1.31382 322.23 1.35182C317.81 1.56582 313.357 1.42282 308.919 1.62182C304.228 1.83282 299.594 1.31882 294.913 1.38582C290.124 1.45482 285.335 1.51382 280.546 1.50982C275.117 1.50582 269.707 1.27382 264.294 1.60482C259.219 1.91382 254.127 1.86382 249.045 1.74682C238.287 1.50082 227.518 1.03082 216.757 1.15782C205.762 1.28782 194.774 1.29982 183.784 1.38682C172.615 1.47582 161.448 1.11982 150.28 1.22382C139.259 1.32682 128.301 2.19682 117.265 1.95682C106.32 1.71782 95.4155 1.14082 84.4615 1.16282C74.1955 1.18382 63.9315 1.24682 53.6665 1.25082C48.5625 1.25282 43.4595 1.31782 38.3565 1.33782C33.6875 1.35682 29.0265 1.66082 24.3585 1.47682C20.4545 1.32382 16.5115 0.834816 12.6235 1.35782C10.5525 1.63582 8.44851 1.86782 6.36651 1.54182C5.67251 1.43382 5.26451 1.30282 4.54851 1.44582C1.89251 1.97382 0.634506 4.64682 0.636506 7.13682C0.639506 9.78982 0.470506 12.5518 0.495506 15.2448C0.589506 25.3498 0.878506 35.4798 0.656506 45.5858C0.541506 50.7508 1.08151 55.9008 0.989506 61.0748C0.943506 63.5808 0.449506 66.2378 0.596506 68.7258C0.753506 71.3708 1.21051 73.9268 1.13851 76.6048C0.856506 87.1108 -0.259494 97.5478 0.055506 108.069C0.383506 119.046 0.601506 130.004 0.790506 140.986C0.888506 146.673 0.558506 152.342 0.575506 158.027C0.592506 163.462 0.709506 168.897 0.718506 174.333C0.735506 185.278 0.477506 196.21 0.575506 207.158C0.670506 217.64 0.724506 228.15 0.486506 238.625C0.374506 243.55 0.906506 248.425 0.694506 253.361C0.492506 258.009 0.739506 262.644 0.511506 267.288C0.470506 268.129 -0.346494 272.709 0.620506 273.906C0.728506 276.51 2.23951 278.261 4.74251 278.962C5.71351 280.127 11.0605 279.157 11.7625 279.13C15.8735 278.971 20.0245 279.381 24.1425 279.379C34.8615 279.374 45.5815 278.822 56.3075 278.896C67.2355 278.972 78.1605 278.716 89.0925 278.814C100.541 278.917 111.956 279.469 123.409 279.314C169.762 278.686 216.119 279.472 262.474 279.154C274.402 279.072 286.335 279.156 298.26 279.084C304.018 279.05 309.74 278.456 315.505 278.791C318.191 278.946 320.854 278.849 323.536 279.024C324.401 279.08 325.77 279.504 326.611 279.046C329.68 278.838 331.348 276.632 330.964 273.573C330.965 273.567 330.967 273.562 330.969 273.557C331.257 270.742 330.706 267.867 331.068 265.051C331.557 261.253 331.077 258.095 330.604 254.323C330.033 249.754 330.975 245.237 331.189 240.683Z" fill="#23253A"/>
<path fill-rule="evenodd" clip-rule="evenodd" d="M28.4526 31.3596L71.1206 30.7876C71.5646 30.7816 72.4266 29.7206 71.8056 29.7286C57.5826 29.9196 43.3606 30.1106 29.1376 30.3016C28.6946 30.3076 27.8316 31.3676 28.4526 31.3596Z" fill="#23253A"/>
<path fill-rule="evenodd" clip-rule="evenodd" d="M88.6806 31.9907C118.45 31.1337 148.234 30.8847 178.013 31.2457C178.718 31.2537 179.143 30.0277 178.264 30.0167C148.485 29.6557 118.701 29.9047 88.9316 30.7617C88.2296 30.7827 87.8026 32.0157 88.6806 31.9907Z" fill="#23253A"/>
<path fill-rule="evenodd" clip-rule="evenodd" d="M29.7548 55.748C51.7538 55.43 73.7518 55.113 95.7508 54.795C96.1678 54.789 96.8348 53.662 96.5068 53.667C74.5088 53.985 52.5098 54.303 30.5108 54.62C30.0938 54.626 29.4268 55.753 29.7548 55.748Z" fill="#23253A"/>
<path fill-rule="evenodd" clip-rule="evenodd" d="M32.365 93.067C35.026 92.788 37.686 92.509 40.347 92.23C40.726 92.191 41.323 91.2 41.236 91.209C38.575 91.488 35.914 91.767 33.253 92.046C32.875 92.086 32.278 93.076 32.365 93.067Z" fill="#23253A"/>
<path fill-rule="evenodd" clip-rule="evenodd" d="M32.3439 113.537C34.0319 112.579 36.1409 113.019 37.4839 114.347C37.9379 114.797 38.9329 113.811 38.4779 113.362C36.7049 111.608 34.0899 111.42 31.9649 112.626C31.2959 113.005 31.5449 113.99 32.3439 113.537Z" fill="#23253A"/>
<path fill-rule="evenodd" clip-rule="evenodd" d="M31.9444 134.364H37.9444C38.6594 134.364 39.1504 133.077 38.3204 133.077H32.3204C31.6064 133.077 31.1154 134.364 31.9444 134.364Z" fill="#23253A"/>
<path fill-rule="evenodd" clip-rule="evenodd" d="M31.3814 154.237H38.0484C38.8334 154.237 39.1094 152.938 38.2174 152.938H31.5504C30.7654 152.938 30.4894 154.237 31.3814 154.237Z" fill="#23253A"/>
<path fill-rule="evenodd" clip-rule="evenodd" d="M31.4555 174.113H38.1225C38.9175 174.113 39.0295 172.797 38.1415 172.797H31.4755C30.6795 172.797 30.5675 174.113 31.4555 174.113Z" fill="#23253A"/>
<path fill-rule="evenodd" clip-rule="evenodd" d="M50.5438 237.196C55.6238 235.951 60.5508 237.679 65.6068 238.132C70.4398 238.565 74.0568 236.656 78.5728 235.358C78.9658 235.245 79.6958 234.13 78.9608 234.341C76.7228 234.985 74.6268 236.05 72.3808 236.66C69.6168 237.411 66.7658 237.179 63.9708 236.749C59.6918 236.091 55.4818 235.064 51.1798 236.118C50.7908 236.214 50.0248 237.323 50.5438 237.196Z" fill="#23253A"/>
<path fill-rule="evenodd" clip-rule="evenodd" d="M35.8585 256.446C53.8155 255.778 71.7885 255.808 89.7435 256.533C90.1955 256.551 90.9215 255.424 90.5075 255.407C72.4835 254.68 54.4405 254.654 36.4145 255.325C36.0055 255.34 35.2515 256.469 35.8585 256.446Z" fill="#23253A"/>
<path fill-rule="evenodd" clip-rule="evenodd" d="M310.528 262.066C309.636 262.16 308.637 262.052 305.801 261.974C302.677 261.896 297.865 261.849 293.341 262.066C287.977 262.171 282.352 262.138 275.723 262.095C269.278 262.051 262.403 261.999 255.528 262.066C248.653 262.099 241.778 262.087 235.333 262.073C229.261 262.058 222.747 262.042 217.716 262.066C213.102 261.785 208.759 261.73 205.255 261.772C202.108 261.815 200.824 261.955 200.528 262.066C197.536 261.566 195.288 260.068 194.528 256.066C194.25 255.72 194.556 253.398 194.528 251.033C194.499 248.59 195.309 243.856 194.528 239.566C194.558 235.647 194.379 231.517 194.528 228.368C194.835 225.22 194.531 223.054 194.528 223.066C193.894 219.415 196.839 217.222 200.528 217.066C200.322 216.577 201.953 216.646 205.255 216.803C208.367 216.96 212.921 217.205 217.716 217.066C222.777 216.915 228.433 216.796 235.333 216.775C241.778 216.753 248.653 216.828 255.528 217.066C262.403 217.488 269.278 217.56 275.723 217.491C281.952 217.421 288.258 217.21 293.341 217.066C298.809 216.485 302.989 216.747 305.801 217.024C308.915 217.3 310.592 217.591 310.528 217.066C314.157 217.584 316.64 219.923 316.528 223.066C316.4 223.319 316.479 225.465 316.528 228.538C316.105 231.61 316.122 235.609 316.528 239.566C316.42 243.353 316.304 247.472 316.528 250.748C316.136 253.77 316.588 256.558 316.528 256.066C316.278 258.905 313.894 261.657 310.528 262.066Z" fill="#A6B2ED"/>
<path fill-rule="evenodd" clip-rule="evenodd" d="M310.758 261.503C306.624 261.825 302.332 261.299 298.177 261.362C292.538 261.447 286.91 261.585 281.268 261.559C269.042 261.504 256.82 261.527 244.594 261.52C232.921 261.514 221.26 261.33 209.594 261.204C207.269 261.179 204.928 261.152 202.607 261.296C201.141 261.386 200.121 261.525 198.713 260.875C194.174 258.779 194.918 253.121 195.159 249.028C195.51 243.072 195.029 237.195 195.035 231.232C195.038 228.597 195.374 225.956 195.155 223.325C195.104 222.711 194.965 222.098 195.02 221.48C195.266 218.712 197.891 217.813 200.237 217.631C200.597 217.603 201.132 217.184 201.095 216.779C201.162 217.521 201.347 217.163 202.033 217.255C202.842 217.363 203.717 217.31 204.534 217.348C206.265 217.43 207.995 217.523 209.727 217.583C213.54 217.715 217.339 217.623 221.15 217.53C229.252 217.331 237.359 217.278 245.463 217.395C254.058 217.519 262.635 218.077 271.234 218.079C279.583 218.08 287.927 217.828 296.259 217.374C299.792 217.181 303.287 217.373 306.802 217.711C307.654 217.792 309.502 218.27 310.483 217.701C313.91 218.427 315.962 220.43 315.894 224.064C315.829 227.519 315.62 230.987 315.651 234.441C315.688 238.614 315.813 242.767 315.833 246.946C315.847 250.024 315.537 253.291 315.96 256.351C315.552 259.228 313.511 260.999 310.758 261.503ZM317.095 255.779C317.093 255.753 317.082 255.743 317.077 255.72C317.079 255.718 317.082 255.717 317.084 255.716C316.823 253.947 317.071 252.227 317.095 250.462C317.126 248.223 316.952 245.974 316.987 243.73C317.055 239.326 316.582 234.911 316.872 230.514C317.058 227.709 317.508 224.375 317.005 221.568C316.465 218.554 313.722 217.017 310.933 216.516C310.53 216.444 310.075 216.836 309.982 217.218C310.153 216.519 309.434 216.766 308.807 216.715C308.05 216.654 307.293 216.57 306.536 216.499C305.114 216.365 303.694 216.248 302.266 216.194C298.398 216.048 294.564 216.471 290.703 216.585C282.174 216.836 273.641 217.063 265.108 216.876C256.203 216.682 247.322 216.215 238.41 216.205C230.659 216.196 222.914 216.531 215.167 216.541C211.176 216.546 207.205 216.245 203.219 216.138C202.632 216.122 200.974 215.97 200.274 216.557C197.245 216.948 194.107 218.658 193.884 222.052C193.779 223.639 194.135 225.286 194.078 226.892C193.966 230.005 193.909 233.091 193.944 236.209C193.976 239.162 194.351 242.089 194.289 245.037C194.232 247.71 194.014 250.381 193.932 253.054C193.814 256.93 194.508 260.883 198.694 262.27C200.098 262.736 201.163 262.463 202.612 262.399C205.632 262.265 208.666 262.306 211.687 262.384C217.941 262.547 224.176 262.614 230.435 262.627C244.192 262.655 257.949 262.548 271.706 262.635C278.816 262.68 285.941 262.832 293.05 262.631C296.392 262.536 299.725 262.448 303.069 262.493C305.434 262.524 307.877 262.82 310.237 262.631C310.258 262.629 310.282 262.615 310.304 262.609C310.329 262.607 310.342 262.615 310.371 262.61C313.822 262.01 316.433 259.485 317.035 256.048C317.076 255.971 317.104 255.897 317.099 255.832C317.098 255.814 317.097 255.797 317.095 255.779Z" fill="#23253A"/>
<path fill-rule="evenodd" clip-rule="evenodd" d="M219.723 242.289C226.483 240.724 233.342 239.336 240.309 239.31C246.978 239.284 253.34 241.061 259.895 241.984C271.548 243.626 283.393 241.753 294.058 236.825C294.872 236.449 294.172 235.26 293.361 235.634C281.418 241.153 268.54 242.279 255.688 239.862C249.763 238.747 243.977 237.705 237.918 237.983C231.642 238.272 225.463 239.541 219.358 240.954C218.487 241.156 218.847 242.492 219.723 242.289Z" fill="white"/>
<path fill-rule="evenodd" clip-rule="evenodd" d="M65.7997 166.463C70.3147 158.377 75.0727 149.687 82.9417 144.379C86.7157 141.833 91.1287 140.086 95.7017 139.834C100.305 139.58 104.333 141.147 108.272 143.375C113.917 146.567 119.909 150.632 126.639 148.175C131.595 146.364 135.009 141.89 138.058 137.818C142.071 132.456 146.152 126.213 153.011 124.389C162.143 121.96 171.732 127.058 180.524 128.951C196.675 132.428 213.798 131.111 229.288 125.405C238.458 122.027 246.271 116.847 254.317 111.418C263.616 105.144 273.713 101.619 285.031 103.116C285.537 103.183 286.298 102.034 285.764 101.963C277.184 100.829 268.555 102.328 260.9 106.388C252.851 110.657 245.952 116.716 237.753 120.772C221.176 128.972 201.876 131.638 183.693 128.285C174.942 126.672 166.259 122.217 157.235 122.654C150.517 122.979 145.597 126.955 141.529 131.972C137.64 136.767 134.375 142.991 128.859 146.136C121.057 150.584 113.928 144.67 107.136 141.202C98.9487 137.022 89.9957 138.509 82.5717 143.638C74.5567 149.174 69.6347 157.94 64.9937 166.254C64.5397 167.067 65.4577 167.076 65.7997 166.463Z" fill="#23253A"/>
</svg>
