<svg width="50" height="50" viewBox="0 0 50 50" fill="none" xmlns="http://www.w3.org/2000/svg">
<mask id="mask0_0_2291" style="mask-type:alpha" maskUnits="userSpaceOnUse" x="0" y="0" width="50" height="50">
<path fill-rule="evenodd" clip-rule="evenodd" d="M0 0H49.7409V49.7409H0V0Z" fill="white"/>
</mask>
<g mask="url(#mask0_0_2291)">
<path fill-rule="evenodd" clip-rule="evenodd" d="M0 47.9275V42.2018C0 41.721 0.190933 41.2596 0.531088 40.9197L40.9197 0.531088C41.2596 0.190933 41.721 0 42.2018 0H47.9275C48.929 0 49.7409 0.811917 49.7409 1.81347V7.53912C49.7409 8.01995 49.5497 8.48109 49.2098 8.82124L8.82124 49.2098C8.48109 49.5497 8.01995 49.7409 7.53886 49.7409H1.81347C0.811917 49.7409 0 48.929 0 47.9275Z" fill="#5063EE"/>
</g>
<path fill-rule="evenodd" clip-rule="evenodd" d="M1.81347 24.8705H7.53886C8.01995 24.8705 8.48109 24.6793 8.82124 24.3394L24.3394 8.82124C24.6793 8.48109 24.8705 8.01995 24.8705 7.53912V1.81347C24.8705 0.811917 24.0585 0 23.057 0H17.3313C16.8505 0 16.3891 0.190933 16.0492 0.531088L0.531088 16.0492C0.190933 16.3891 0 16.8505 0 17.3313V23.057C0 24.0585 0.811917 24.8705 1.81347 24.8705Z" fill="#5063EE"/>
<mask id="mask1_0_2291" style="mask-type:alpha" maskUnits="userSpaceOnUse" x="29" y="29" width="21" height="21">
<path fill-rule="evenodd" clip-rule="evenodd" d="M29.7666 29.7666H49.7408V49.7408H29.7666V29.7666Z" fill="white"/>
</mask>
<g mask="url(#mask1_0_2291)">
<path fill-rule="evenodd" clip-rule="evenodd" d="M47.9274 49.7408H42.2017C41.7209 49.7408 41.2595 49.5496 40.9196 49.2097L30.2978 38.588C29.5895 37.8797 29.5895 36.7315 30.2978 36.0232L36.0232 30.2978C36.7315 29.5895 37.8797 29.5895 38.588 30.2978L49.2097 40.9196C49.5496 41.2595 49.7408 41.7209 49.7408 42.2017V47.9273C49.7408 48.9289 48.9289 49.7408 47.9274 49.7408Z" fill="#26262B"/>
</g>
<path fill-rule="evenodd" clip-rule="evenodd" d="M1.76891 6.52099L6.52098 1.76891C7.17383 1.11606 6.71166 0 5.78834 0H1.03627C0.463731 0 0 0.463731 0 1.03627V5.78808C0 6.7114 1.11606 7.17383 1.76891 6.52099Z" fill="#5063EE"/>
</svg>
