<svg width="193" height="193" viewBox="0 0 193 193" fill="none" xmlns="http://www.w3.org/2000/svg">
<mask id="mask0_0_4574" style="mask-type:alpha" maskUnits="userSpaceOnUse" x="0" y="0" width="192" height="192">
<path fill-rule="evenodd" clip-rule="evenodd" d="M0 0.000198364H192V192H0V0.000198364Z" fill="white"/>
</mask>
<g mask="url(#mask0_0_4574)">
<path fill-rule="evenodd" clip-rule="evenodd" d="M0 185V162.899C0 161.043 0.737 159.262 2.05 157.95L157.95 2.0502C159.262 0.737198 161.043 0.000198364 162.899 0.000198364H185C188.866 0.000198364 192 3.1342 192 7.0002V29.1012C192 30.9572 191.262 32.7372 189.95 34.0502L34.05 189.95C32.737 191.262 30.957 192 29.1 192H7C3.134 192 0 188.866 0 185Z" fill="#5063EE"/>
</g>
<path fill-rule="evenodd" clip-rule="evenodd" d="M7 96.0001H29.1C30.957 96.0001 32.737 95.2621 34.05 93.9501L93.95 34.0501C95.262 32.7371 96 30.9571 96 29.1011V7.0001C96 3.1341 92.866 9.91821e-05 89 9.91821e-05H66.899C65.043 9.91821e-05 63.262 0.737099 61.95 2.0501L2.05 61.9501C0.737 63.2621 0 65.0431 0 66.8991V89.0001C0 92.8661 3.134 96.0001 7 96.0001Z" fill="#5063EE"/>
<mask id="mask1_0_4574" style="mask-type:alpha" maskUnits="userSpaceOnUse" x="114" y="114" width="78" height="78">
<path fill-rule="evenodd" clip-rule="evenodd" d="M114.9 114.9H192V192H114.9V114.9Z" fill="white"/>
</mask>
<g mask="url(#mask1_0_4574)">
<path fill-rule="evenodd" clip-rule="evenodd" d="M185 192H162.899C161.043 192 159.262 191.262 157.95 189.95L116.95 148.95C114.216 146.216 114.216 141.784 116.95 139.05L139.05 116.95C141.784 114.216 146.216 114.216 148.95 116.95L189.95 157.95C191.262 159.262 192 161.043 192 162.899V185C192 188.866 188.866 192 185 192Z" fill="#26262B"/>
</g>
<path fill-rule="evenodd" clip-rule="evenodd" d="M6.82849 25.1715L25.1715 6.8285C27.6915 4.3085 25.9075 0.000499725 22.3435 0.000499725H4.00049C1.79049 0.000499725 0.000488281 1.7905 0.000488281 4.0005V22.3425C0.000488281 25.9065 4.30849 27.6915 6.82849 25.1715Z" fill="#5063EE"/>
</svg>
