<svg width="40" height="40" viewBox="0 0 40 40" fill="none" xmlns="http://www.w3.org/2000/svg">
<rect width="40" height="40" rx="2" fill="#DFDFE6"/>
<mask id="mask0_0_2247" style="mask-type:alpha" maskUnits="userSpaceOnUse" x="0" y="0" width="40" height="40">
<rect width="40" height="40" rx="2" fill="white"/>
</mask>
<g mask="url(#mask0_0_2247)">
<g opacity="0.3">
<path fill-rule="evenodd" clip-rule="evenodd" d="M20 12C22.4163 12 24.375 13.9588 24.375 16.375C24.375 18.7913 22.4163 20.75 20 20.75C17.5837 20.75 15.625 18.7913 15.625 16.375C15.625 13.9588 17.5837 12 20 12ZM24.7276 21.0569L23.0617 20.6404C21.013 22.114 18.5298 21.7852 16.9383 20.6404L15.2724 21.0569C13.9369 21.3908 13 22.5907 13 23.9673V26.5C13 27.3284 13.6716 28 14.5 28H25.5C26.3284 28 27 27.3284 27 26.5V23.9673C27 22.5907 26.0631 21.3908 24.7276 21.0569Z" fill="#5063EE"/>
<mask id="mask1_0_2247" style="mask-type:alpha" maskUnits="userSpaceOnUse" x="13" y="12" width="14" height="16">
<path fill-rule="evenodd" clip-rule="evenodd" d="M20 12C22.4163 12 24.375 13.9588 24.375 16.375C24.375 18.7913 22.4163 20.75 20 20.75C17.5837 20.75 15.625 18.7913 15.625 16.375C15.625 13.9588 17.5837 12 20 12ZM24.7276 21.0569L23.0617 20.6404C21.013 22.114 18.5298 21.7852 16.9383 20.6404L15.2724 21.0569C13.9369 21.3908 13 22.5907 13 23.9673V26.5C13 27.3284 13.6716 28 14.5 28H25.5C26.3284 28 27 27.3284 27 26.5V23.9673C27 22.5907 26.0631 21.3908 24.7276 21.0569Z" fill="white"/>
</mask>
<g mask="url(#mask1_0_2247)">
</g>
</g>
</g>
</svg>
