<svg width="22" height="44" viewBox="0 0 22 44" fill="none" xmlns="http://www.w3.org/2000/svg">
<path fill-rule="evenodd" clip-rule="evenodd" d="M21.5537 29.0746L18.2279 15.3849C18.0223 14.5108 17.5295 13.7308 16.8284 13.1697C16.7073 13.0732 16.5805 12.9839 16.4489 12.9023C17.6195 11.6024 18.333 9.88316 18.333 8.00033C18.333 3.95674 15.0432 0.666992 10.9997 0.666992C6.95608 0.666992 3.66633 3.95674 3.66633 8.00033C3.66633 9.88316 4.37983 11.6024 5.55041 12.9023C5.41878 12.9839 5.29206 13.0732 5.17091 13.1697C4.46982 13.7308 3.97707 14.5108 3.77141 15.3849L0.44566 29.0746C-0.156006 31.5469 1.72599 34.0003 4.33691 34.0003H5.41633V38.917C5.41633 41.3523 7.39766 43.3337 9.83299 43.3337H12.1663C14.6017 43.3337 16.583 41.3523 16.583 38.917V34.0003H17.6623C20.2731 34.0003 22.1554 31.5473 21.5537 29.0746ZM10.9997 3.33366C13.577 3.33366 15.6663 5.42299 15.6663 8.00033C15.6663 10.5777 13.577 12.667 10.9997 12.667C8.42233 12.667 6.33299 10.5777 6.33299 8.00033C6.33299 5.42299 8.42233 3.33366 10.9997 3.33366ZM17.6663 31.3337H13.9163V38.917C13.9163 39.8835 13.1328 40.667 12.1663 40.667H9.83299C8.86649 40.667 8.08299 39.8835 8.08299 38.917V31.3337H4.33299C3.47808 31.3337 2.84324 30.5387 3.03283 29.7048L6.36616 16.0003C6.50413 15.3933 7.0438 14.9625 7.66633 14.9625H8.69558C10.1918 15.4576 11.8076 15.4576 13.3038 14.9625H14.333C14.9555 14.9625 15.4952 15.3933 15.6332 16.0003L18.9665 29.7048C19.156 30.5385 18.5215 31.3337 17.6663 31.3337Z" fill="#E9EAF2"/>
</svg>
