<svg width="22" height="22" viewBox="0 0 22 22" fill="none" xmlns="http://www.w3.org/2000/svg">
<path fill-rule="evenodd" clip-rule="evenodd" d="M16.5 18H5.5C4.67156 18 4 17.3284 4 16.5V5.5C4 4.67156 4.67156 4 5.5 4H16.5C17.3284 4 18 4.67156 18 5.5V16.5C18 17.3284 17.3284 18 16.5 18ZM10.1036 14.9357L15.8536 9.18566C16.0488 8.99041 16.0488 8.67381 15.8536 8.47856L15.1465 7.77147C14.9512 7.57622 14.6346 7.57619 14.4393 7.77147L9.75 12.4608L7.56066 10.2714C7.36541 10.0762 7.04881 10.0762 6.85353 10.2714L6.14644 10.9785C5.95119 11.1738 5.95119 11.4904 6.14644 11.6856L9.39644 14.9356C9.59172 15.1309 9.90828 15.1309 10.1036 14.9357Z" fill="#5063EE"/>
<mask id="mask0_0_4046" style="mask-type:alpha" maskUnits="userSpaceOnUse" x="4" y="4" width="14" height="14">
<path fill-rule="evenodd" clip-rule="evenodd" d="M16.5 18H5.5C4.67156 18 4 17.3284 4 16.5V5.5C4 4.67156 4.67156 4 5.5 4H16.5C17.3284 4 18 4.67156 18 5.5V16.5C18 17.3284 17.3284 18 16.5 18ZM10.1036 14.9357L15.8536 9.18566C16.0488 8.99041 16.0488 8.67381 15.8536 8.47856L15.1465 7.77147C14.9512 7.57622 14.6346 7.57619 14.4393 7.77147L9.75 12.4608L7.56066 10.2714C7.36541 10.0762 7.04881 10.0762 6.85353 10.2714L6.14644 10.9785C5.95119 11.1738 5.95119 11.4904 6.14644 11.6856L9.39644 14.9356C9.59172 15.1309 9.90828 15.1309 10.1036 14.9357Z" fill="white"/>
</mask>
<g mask="url(#mask0_0_4046)">
</g>
</svg>
