<svg width="22" height="22" viewBox="0 0 22 22" fill="none" xmlns="http://www.w3.org/2000/svg">
<path fill-rule="evenodd" clip-rule="evenodd" d="M16.5 5C16.775 5 17 5.225 17 5.5V16.5C17 16.775 16.775 17 16.5 17H5.5C5.225 17 5 16.775 5 16.5V5.5C5 5.225 5.225 5 5.5 5H16.5ZM16.5 4H5.5C4.67188 4 4 4.67188 4 5.5V16.5C4 17.3281 4.67188 18 5.5 18H16.5C17.3281 18 18 17.3281 18 16.5V5.5C18 4.67188 17.3281 4 16.5 4ZM14.625 10.4375H11.5625V7.375C11.5625 7.16875 11.3938 7 11.1875 7H10.8125C10.6062 7 10.4375 7.16875 10.4375 7.375V10.4375H7.375C7.16875 10.4375 7 10.6062 7 10.8125V11.1875C7 11.3938 7.16875 11.5625 7.375 11.5625H10.4375V14.625C10.4375 14.8313 10.6062 15 10.8125 15H11.1875C11.3938 15 11.5625 14.8313 11.5625 14.625V11.5625H14.625C14.8313 11.5625 15 11.3938 15 11.1875V10.8125C15 10.6062 14.8313 10.4375 14.625 10.4375Z" fill="#5063EE"/>
<mask id="mask0_0_4035" style="mask-type:alpha" maskUnits="userSpaceOnUse" x="4" y="4" width="14" height="14">
<path fill-rule="evenodd" clip-rule="evenodd" d="M16.5 5C16.775 5 17 5.225 17 5.5V16.5C17 16.775 16.775 17 16.5 17H5.5C5.225 17 5 16.775 5 16.5V5.5C5 5.225 5.225 5 5.5 5H16.5ZM16.5 4H5.5C4.67188 4 4 4.67188 4 5.5V16.5C4 17.3281 4.67188 18 5.5 18H16.5C17.3281 18 18 17.3281 18 16.5V5.5C18 4.67188 17.3281 4 16.5 4ZM14.625 10.4375H11.5625V7.375C11.5625 7.16875 11.3938 7 11.1875 7H10.8125C10.6062 7 10.4375 7.16875 10.4375 7.375V10.4375H7.375C7.16875 10.4375 7 10.6062 7 10.8125V11.1875C7 11.3938 7.16875 11.5625 7.375 11.5625H10.4375V14.625C10.4375 14.8313 10.6062 15 10.8125 15H11.1875C11.3938 15 11.5625 14.8313 11.5625 14.625V11.5625H14.625C14.8313 11.5625 15 11.3938 15 11.1875V10.8125C15 10.6062 14.8313 10.4375 14.625 10.4375Z" fill="white"/>
</mask>
<g mask="url(#mask0_0_4035)">
</g>
</svg>
