<svg width="22" height="22" viewBox="0 0 22 22" fill="none" xmlns="http://www.w3.org/2000/svg">
<path fill-rule="evenodd" clip-rule="evenodd" d="M17.2694 6.35779C16.7422 5.83054 15.8873 5.83054 15.3601 6.3578L8.69678 13.0211L5.98152 10.3058C5.45427 9.77858 4.59942 9.77858 4.07217 10.3058C3.54492 10.8331 3.54492 11.6879 4.07217 12.2152L7.48199 15.625C7.79815 15.9412 8.2321 16.0677 8.64258 16.0047C9.07901 16.1027 9.55467 15.9819 9.89436 15.6422L17.2694 8.26714C17.7967 7.73989 17.7967 6.88505 17.2694 6.35779Z" fill="#5063EE"/>
<mask id="mask0_0_4060" style="mask-type:alpha" maskUnits="userSpaceOnUse" x="3" y="5" width="15" height="12">
<path fill-rule="evenodd" clip-rule="evenodd" d="M17.2694 6.35779C16.7422 5.83054 15.8873 5.83054 15.3601 6.3578L8.69678 13.0211L5.98152 10.3058C5.45427 9.77858 4.59942 9.77858 4.07217 10.3058C3.54492 10.8331 3.54492 11.6879 4.07217 12.2152L7.48199 15.625C7.79815 15.9412 8.2321 16.0677 8.64258 16.0047C9.07901 16.1027 9.55467 15.9819 9.89436 15.6422L17.2694 8.26714C17.7967 7.73989 17.7967 6.88505 17.2694 6.35779Z" fill="white"/>
</mask>
<g mask="url(#mask0_0_4060)">
</g>
</svg>
