<svg width="22" height="22" viewBox="0 0 22 22" fill="none" xmlns="http://www.w3.org/2000/svg">
<path fill-rule="evenodd" clip-rule="evenodd" d="M17.929 10C17.849 9.444 17.684 8.919 17.481 8.414L17.169 8.594C17.012 8.685 16.839 8.728 16.67 8.728C16.324 8.728 15.988 8.549 15.803 8.228C15.527 7.749 15.69 7.138 16.169 6.861L16.483 6.68C16.142 6.247 15.753 5.858 15.32 5.517L15.139 5.831C14.954 6.152 14.618 6.331 14.272 6.331C14.102 6.331 13.93 6.288 13.773 6.197C13.295 5.921 13.131 5.31 13.408 4.831L13.587 4.52C13.081 4.317 12.556 4.151 12 4.071V4.454V10H17.546H17.929ZM20 11C20 11.553 19.553 12 19 12H17.546H11C10.448 12 10 11.553 10 11V4.454V3C10 2.447 10.448 2 11 2C12.622 2 14.141 2.438 15.457 3.192C15.471 3.199 15.487 3.198 15.5 3.206C15.517 3.216 15.527 3.233 15.543 3.244C16.869 4.024 17.977 5.131 18.757 6.458C18.767 6.474 18.784 6.483 18.794 6.5C18.802 6.514 18.802 6.529 18.809 6.543C19.563 7.859 20 9.378 20 11ZM11 16.546C10.448 16.546 10 16.993 10 17.546V19C10 19.553 10.448 20 11 20C11.553 20 12 19.553 12 19V17.546C12 16.993 11.553 16.546 11 16.546ZM5.455 11C5.455 10.447 5.007 10 4.455 10H3C2.448 10 2 10.447 2 11C2 11.553 2.448 12 3 12H4.455C5.007 12 5.455 11.553 5.455 11ZM8.227 15.803C7.749 15.525 7.137 15.689 6.862 16.169L6.135 17.428C5.858 17.906 6.022 18.518 6.5 18.794C6.658 18.885 6.829 18.928 6.999 18.928C7.345 18.928 7.681 18.749 7.866 18.428L8.593 17.169C8.869 16.69 8.706 16.079 8.227 15.803ZM6.198 13.772C5.922 13.293 5.309 13.129 4.832 13.406L3.572 14.134C3.094 14.41 2.93 15.021 3.206 15.5C3.391 15.821 3.727 16 4.073 16C4.242 16 4.415 15.957 4.572 15.866L5.832 15.139C6.31 14.862 6.474 14.251 6.198 13.772ZM18.429 14.134L17.169 13.406C16.689 13.129 16.078 13.293 15.803 13.772C15.527 14.251 15.69 14.862 16.169 15.139L17.429 15.866C17.586 15.957 17.758 16 17.928 16C18.273 16 18.609 15.821 18.794 15.5C19.071 15.021 18.907 14.41 18.429 14.134ZM3.572 7.866L4.832 8.594C4.989 8.685 5.161 8.728 5.331 8.728C5.677 8.728 6.012 8.549 6.198 8.228C6.474 7.749 6.31 7.138 5.832 6.861L4.572 6.134C4.093 5.856 3.482 6.021 3.206 6.5C2.93 6.979 3.094 7.59 3.572 7.866ZM15.139 16.169C14.863 15.689 14.25 15.525 13.773 15.803C13.295 16.079 13.131 16.69 13.408 17.169L14.135 18.428C14.32 18.749 14.656 18.928 15.001 18.928C15.171 18.928 15.343 18.885 15.5 18.794C15.979 18.518 16.142 17.906 15.866 17.428L15.139 16.169ZM8.593 4.831C8.869 5.31 8.706 5.921 8.227 6.197C8.07 6.288 7.898 6.331 7.728 6.331C7.383 6.331 7.047 6.152 6.862 5.831L6.135 4.572C5.858 4.094 6.022 3.482 6.5 3.206C6.977 2.929 7.59 3.094 7.866 3.572L8.593 4.831Z" fill="#5063EE"/>
<mask id="mask0_0_4088" style="mask-type:alpha" maskUnits="userSpaceOnUse" x="2" y="2" width="18" height="18">
<path fill-rule="evenodd" clip-rule="evenodd" d="M17.929 10C17.849 9.444 17.684 8.919 17.481 8.414L17.169 8.594C17.012 8.685 16.839 8.728 16.67 8.728C16.324 8.728 15.988 8.549 15.803 8.228C15.527 7.749 15.69 7.138 16.169 6.861L16.483 6.68C16.142 6.247 15.753 5.858 15.32 5.517L15.139 5.831C14.954 6.152 14.618 6.331 14.272 6.331C14.102 6.331 13.93 6.288 13.773 6.197C13.295 5.921 13.131 5.31 13.408 4.831L13.587 4.52C13.081 4.317 12.556 4.151 12 4.071V4.454V10H17.546H17.929ZM20 11C20 11.553 19.553 12 19 12H17.546H11C10.448 12 10 11.553 10 11V4.454V3C10 2.447 10.448 2 11 2C12.622 2 14.141 2.438 15.457 3.192C15.471 3.199 15.487 3.198 15.5 3.206C15.517 3.216 15.527 3.233 15.543 3.244C16.869 4.024 17.977 5.131 18.757 6.458C18.767 6.474 18.784 6.483 18.794 6.5C18.802 6.514 18.802 6.529 18.809 6.543C19.563 7.859 20 9.378 20 11ZM11 16.546C10.448 16.546 10 16.993 10 17.546V19C10 19.553 10.448 20 11 20C11.553 20 12 19.553 12 19V17.546C12 16.993 11.553 16.546 11 16.546ZM5.455 11C5.455 10.447 5.007 10 4.455 10H3C2.448 10 2 10.447 2 11C2 11.553 2.448 12 3 12H4.455C5.007 12 5.455 11.553 5.455 11ZM8.227 15.803C7.749 15.525 7.137 15.689 6.862 16.169L6.135 17.428C5.858 17.906 6.022 18.518 6.5 18.794C6.658 18.885 6.829 18.928 6.999 18.928C7.345 18.928 7.681 18.749 7.866 18.428L8.593 17.169C8.869 16.69 8.706 16.079 8.227 15.803ZM6.198 13.772C5.922 13.293 5.309 13.129 4.832 13.406L3.572 14.134C3.094 14.41 2.93 15.021 3.206 15.5C3.391 15.821 3.727 16 4.073 16C4.242 16 4.415 15.957 4.572 15.866L5.832 15.139C6.31 14.862 6.474 14.251 6.198 13.772ZM18.429 14.134L17.169 13.406C16.689 13.129 16.078 13.293 15.803 13.772C15.527 14.251 15.69 14.862 16.169 15.139L17.429 15.866C17.586 15.957 17.758 16 17.928 16C18.273 16 18.609 15.821 18.794 15.5C19.071 15.021 18.907 14.41 18.429 14.134ZM3.572 7.866L4.832 8.594C4.989 8.685 5.161 8.728 5.331 8.728C5.677 8.728 6.012 8.549 6.198 8.228C6.474 7.749 6.31 7.138 5.832 6.861L4.572 6.134C4.093 5.856 3.482 6.021 3.206 6.5C2.93 6.979 3.094 7.59 3.572 7.866ZM15.139 16.169C14.863 15.689 14.25 15.525 13.773 15.803C13.295 16.079 13.131 16.69 13.408 17.169L14.135 18.428C14.32 18.749 14.656 18.928 15.001 18.928C15.171 18.928 15.343 18.885 15.5 18.794C15.979 18.518 16.142 17.906 15.866 17.428L15.139 16.169ZM8.593 4.831C8.869 5.31 8.706 5.921 8.227 6.197C8.07 6.288 7.898 6.331 7.728 6.331C7.383 6.331 7.047 6.152 6.862 5.831L6.135 4.572C5.858 4.094 6.022 3.482 6.5 3.206C6.977 2.929 7.59 3.094 7.866 3.572L8.593 4.831Z" fill="white"/>
</mask>
<g mask="url(#mask0_0_4088)">
</g>
</svg>
