<svg width="22" height="22" viewBox="0 0 22 22" fill="none" xmlns="http://www.w3.org/2000/svg">
<path fill-rule="evenodd" clip-rule="evenodd" d="M16.736 15H14.858C14.411 13.279 12.858 12 11 12C10.634 12 10.286 12.065 9.949 12.158L8.355 9.396C8.078 8.917 7.467 8.753 6.989 9.03C6.51 9.307 6.346 9.918 6.622 10.396L8.208 13.143C7.695 13.645 7.328 14.285 7.142 15H5.264C4.47 13.865 4 12.487 4 11C4 7.141 7.14 4 11 4C14.86 4 18 7.141 18 11C18 12.487 17.53 13.865 16.736 15ZM7.413 17H14.587C13.536 17.63 12.312 18 11 18C9.688 18 8.464 17.63 7.413 17ZM11 14C11.737 14 12.375 14.405 12.722 15H9.278C9.625 14.405 10.263 14 11 14ZM11 2C6.037 2 2 6.037 2 11C2 15.963 6.037 20 11 20C15.962 20 20 15.963 20 11C20 6.037 15.962 2 11 2Z" fill="#5063EE"/>
<mask id="mask0_0_4076" style="mask-type:alpha" maskUnits="userSpaceOnUse" x="2" y="2" width="18" height="18">
<path fill-rule="evenodd" clip-rule="evenodd" d="M16.736 15H14.858C14.411 13.279 12.858 12 11 12C10.634 12 10.286 12.065 9.949 12.158L8.355 9.396C8.078 8.917 7.467 8.753 6.989 9.03C6.51 9.307 6.346 9.918 6.622 10.396L8.208 13.143C7.695 13.645 7.328 14.285 7.142 15H5.264C4.47 13.865 4 12.487 4 11C4 7.141 7.14 4 11 4C14.86 4 18 7.141 18 11C18 12.487 17.53 13.865 16.736 15ZM7.413 17H14.587C13.536 17.63 12.312 18 11 18C9.688 18 8.464 17.63 7.413 17ZM11 14C11.737 14 12.375 14.405 12.722 15H9.278C9.625 14.405 10.263 14 11 14ZM11 2C6.037 2 2 6.037 2 11C2 15.963 6.037 20 11 20C15.962 20 20 15.963 20 11C20 6.037 15.962 2 11 2Z" fill="white"/>
</mask>
<g mask="url(#mask0_0_4076)">
</g>
</svg>
