<svg width="22" height="22" viewBox="0 0 22 22" fill="none" xmlns="http://www.w3.org/2000/svg">
<path fill-rule="evenodd" clip-rule="evenodd" d="M18.0796 7.19878L16.8592 8.41276L13.6485 5.21808L14.8689 4.005C15.1675 3.70803 15.6858 3.70983 15.9853 4.005L17.781 5.79132C18.1773 6.18638 18.2994 6.9792 18.0796 7.19878ZM8.69184 16.538L5.48117 13.3434L12.2119 6.64804L15.4226 9.84272L8.69184 16.538ZM4.07712 17.9338L3.86362 14.9524L4.20196 14.6167L7.41263 17.8105L7.07429 18.1471L4.07712 17.9338ZM19.0602 4.51885L17.2645 2.73163C16.2829 1.75702 14.5704 1.75522 13.5897 2.73163L11.0892 5.21808L11.0901 5.21898L2 14.2613L2.38448 19.6175L7.76907 20L17.9819 9.84272L17.981 9.84182L19.3588 8.47215C20.41 7.42556 20.068 5.52225 19.0602 4.51885Z" fill="#5063EE"/>
<mask id="mask0_0_4124" style="mask-type:alpha" maskUnits="userSpaceOnUse" x="2" y="2" width="18" height="18">
<path fill-rule="evenodd" clip-rule="evenodd" d="M18.0796 7.19878L16.8592 8.41276L13.6485 5.21808L14.8689 4.005C15.1675 3.70803 15.6858 3.70983 15.9853 4.005L17.781 5.79132C18.1773 6.18638 18.2994 6.9792 18.0796 7.19878ZM8.69184 16.538L5.48117 13.3434L12.2119 6.64804L15.4226 9.84272L8.69184 16.538ZM4.07712 17.9338L3.86362 14.9524L4.20196 14.6167L7.41263 17.8105L7.07429 18.1471L4.07712 17.9338ZM19.0602 4.51885L17.2645 2.73163C16.2829 1.75702 14.5704 1.75522 13.5897 2.73163L11.0892 5.21808L11.0901 5.21898L2 14.2613L2.38448 19.6175L7.76907 20L17.9819 9.84272L17.981 9.84182L19.3588 8.47215C20.41 7.42556 20.068 5.52225 19.0602 4.51885Z" fill="white"/>
</mask>
<g mask="url(#mask0_0_4124)">
</g>
</svg>
