<svg width="22" height="22" viewBox="0 0 22 22" fill="none" xmlns="http://www.w3.org/2000/svg">
<path fill-rule="evenodd" clip-rule="evenodd" d="M14.0417 7.38364L18.1 8.00523C18.8278 8.11613 19.1195 9.05874 18.5917 9.59862L15.6556 12.6045L16.35 16.8506C16.475 17.6181 15.7056 18.1901 15.0611 17.834L11.4306 15.8292L7.80001 17.834C7.15557 18.193 6.38612 17.6181 6.51112 16.8506L7.20557 12.6045L4.26946 9.59862C3.74168 9.05874 4.03335 8.11613 4.76112 8.00523L8.81946 7.38364L10.6333 3.51983C10.9611 2.82235 11.9028 2.83111 12.2278 3.51983L14.0417 7.38364ZM14.9004 15.9975L14.2512 12.0199L17 9.20112L13.2002 8.62165L11.5 5L9.79979 8.62165L6 9.20112L8.75117 12.0223L8.10191 16L11.5 14.1217L14.9004 15.9975Z" fill="#5063EE"/>
<mask id="mask0_0_4137" style="mask-type:alpha" maskUnits="userSpaceOnUse" x="4" y="3" width="15" height="15">
<path fill-rule="evenodd" clip-rule="evenodd" d="M14.0417 7.38364L18.1 8.00523C18.8278 8.11613 19.1195 9.05874 18.5917 9.59862L15.6556 12.6045L16.35 16.8506C16.475 17.6181 15.7056 18.1901 15.0611 17.834L11.4306 15.8292L7.80001 17.834C7.15557 18.193 6.38612 17.6181 6.51112 16.8506L7.20557 12.6045L4.26946 9.59862C3.74168 9.05874 4.03335 8.11613 4.76112 8.00523L8.81946 7.38364L10.6333 3.51983C10.9611 2.82235 11.9028 2.83111 12.2278 3.51983L14.0417 7.38364ZM14.9004 15.9975L14.2512 12.0199L17 9.20112L13.2002 8.62165L11.5 5L9.79979 8.62165L6 9.20112L8.75117 12.0223L8.10191 16L11.5 14.1217L14.9004 15.9975Z" fill="white"/>
</mask>
<g mask="url(#mask0_0_4137)">
</g>
</svg>
