<svg width="22" height="22" viewBox="0 0 22 22" fill="none" xmlns="http://www.w3.org/2000/svg">
<path fill-rule="evenodd" clip-rule="evenodd" d="M6 17.2353C4.99727 17.2353 4.18182 16.4438 4.18182 15.4706C4.18182 14.4974 4.99727 13.7059 6 13.7059C7.00273 13.7059 7.81818 14.4974 7.81818 15.4706C7.81818 16.4438 7.00273 17.2353 6 17.2353ZM20.0909 14.5882H9.50727C9.10091 13.0706 7.68909 11.9412 6 11.9412C4.31091 11.9412 2.89909 13.0706 2.49273 14.5882H1.90909C1.40727 14.5882 1 14.9835 1 15.4706C1 15.9576 1.40727 16.3529 1.90909 16.3529H2.49273C2.89909 17.8706 4.31091 19 6 19C7.68909 19 9.10091 17.8706 9.50727 16.3529H20.0909C20.5927 16.3529 21 15.9576 21 15.4706C21 14.9835 20.5927 14.5882 20.0909 14.5882ZM15.0909 5.76471C16.0936 5.76471 16.9091 6.55618 16.9091 7.52941C16.9091 8.50265 16.0936 9.29412 15.0909 9.29412C14.0882 9.29412 13.2727 8.50265 13.2727 7.52941C13.2727 6.55618 14.0882 5.76471 15.0909 5.76471ZM1.90909 8.41176H11.5836C11.99 9.92941 13.4018 11.0588 15.0909 11.0588C16.78 11.0588 18.1918 9.92941 18.5982 8.41176H20.0909C20.5927 8.41176 21 8.01647 21 7.52941C21 7.04235 20.5927 6.64706 20.0909 6.64706H18.5982C18.1918 5.12941 16.78 4 15.0909 4C13.4018 4 11.99 5.12941 11.5836 6.64706H1.90909C1.40727 6.64706 1 7.04235 1 7.52941C1 8.01647 1.40727 8.41176 1.90909 8.41176Z" fill="#5063EE"/>
<mask id="mask0_0_4146" style="mask-type:alpha" maskUnits="userSpaceOnUse" x="1" y="4" width="20" height="15">
<path fill-rule="evenodd" clip-rule="evenodd" d="M6 17.2353C4.99727 17.2353 4.18182 16.4438 4.18182 15.4706C4.18182 14.4974 4.99727 13.7059 6 13.7059C7.00273 13.7059 7.81818 14.4974 7.81818 15.4706C7.81818 16.4438 7.00273 17.2353 6 17.2353ZM20.0909 14.5882H9.50727C9.10091 13.0706 7.68909 11.9412 6 11.9412C4.31091 11.9412 2.89909 13.0706 2.49273 14.5882H1.90909C1.40727 14.5882 1 14.9835 1 15.4706C1 15.9576 1.40727 16.3529 1.90909 16.3529H2.49273C2.89909 17.8706 4.31091 19 6 19C7.68909 19 9.10091 17.8706 9.50727 16.3529H20.0909C20.5927 16.3529 21 15.9576 21 15.4706C21 14.9835 20.5927 14.5882 20.0909 14.5882ZM15.0909 5.76471C16.0936 5.76471 16.9091 6.55618 16.9091 7.52941C16.9091 8.50265 16.0936 9.29412 15.0909 9.29412C14.0882 9.29412 13.2727 8.50265 13.2727 7.52941C13.2727 6.55618 14.0882 5.76471 15.0909 5.76471ZM1.90909 8.41176H11.5836C11.99 9.92941 13.4018 11.0588 15.0909 11.0588C16.78 11.0588 18.1918 9.92941 18.5982 8.41176H20.0909C20.5927 8.41176 21 8.01647 21 7.52941C21 7.04235 20.5927 6.64706 20.0909 6.64706H18.5982C18.1918 5.12941 16.78 4 15.0909 4C13.4018 4 11.99 5.12941 11.5836 6.64706H1.90909C1.40727 6.64706 1 7.04235 1 7.52941C1 8.01647 1.40727 8.41176 1.90909 8.41176Z" fill="white"/>
</mask>
<g mask="url(#mask0_0_4146)">
</g>
</svg>
