<svg width="22" height="22" viewBox="0 0 22 22" fill="none" xmlns="http://www.w3.org/2000/svg">
<path fill-rule="evenodd" clip-rule="evenodd" d="M18.4918 4.48965C16.875 2.884 14.7247 2 12.4365 2C10.1492 2 7.99893 2.884 6.38129 4.48965C5.02997 5.83095 4.19503 7.5437 3.95354 9.39415L2.24342 7.60235L1 8.7711L4.73624 12.687L8.72939 9.07625L7.57589 7.8191L5.65939 9.55225C5.8632 8.0962 6.52687 6.74895 7.59216 5.69155C8.88611 4.4072 10.6065 3.7 12.4365 3.7C14.2665 3.7 15.9869 4.4072 17.2809 5.69155C18.5748 6.9759 19.2873 8.68355 19.2873 10.5C19.2873 12.3165 18.5748 14.0241 17.2809 15.3084C15.9869 16.5928 14.2665 17.3 12.4365 17.3C10.6065 17.3 8.88611 16.5928 7.59216 15.3084L6.38129 16.5104C7.99893 18.1152 10.1492 19 12.4365 19C14.7247 19 16.875 18.1152 18.4918 16.5104C20.1094 14.9047 21 12.7703 21 10.5C21 8.2288 20.1094 6.09445 18.4918 4.48965ZM15.6821 12.2H11.5802V6.9657H13.2929V10.5H15.6821V12.2Z" fill="#5063EE"/>
<mask id="mask0_0_4159" style="mask-type:alpha" maskUnits="userSpaceOnUse" x="1" y="2" width="20" height="17">
<path fill-rule="evenodd" clip-rule="evenodd" d="M18.4918 4.48965C16.875 2.884 14.7247 2 12.4365 2C10.1492 2 7.99893 2.884 6.38129 4.48965C5.02997 5.83095 4.19503 7.5437 3.95354 9.39415L2.24342 7.60235L1 8.7711L4.73624 12.687L8.72939 9.07625L7.57589 7.8191L5.65939 9.55225C5.8632 8.0962 6.52687 6.74895 7.59216 5.69155C8.88611 4.4072 10.6065 3.7 12.4365 3.7C14.2665 3.7 15.9869 4.4072 17.2809 5.69155C18.5748 6.9759 19.2873 8.68355 19.2873 10.5C19.2873 12.3165 18.5748 14.0241 17.2809 15.3084C15.9869 16.5928 14.2665 17.3 12.4365 17.3C10.6065 17.3 8.88611 16.5928 7.59216 15.3084L6.38129 16.5104C7.99893 18.1152 10.1492 19 12.4365 19C14.7247 19 16.875 18.1152 18.4918 16.5104C20.1094 14.9047 21 12.7703 21 10.5C21 8.2288 20.1094 6.09445 18.4918 4.48965ZM15.6821 12.2H11.5802V6.9657H13.2929V10.5H15.6821V12.2Z" fill="white"/>
</mask>
<g mask="url(#mask0_0_4159)">
</g>
</svg>
