<svg width="22" height="22" viewBox="0 0 22 22" fill="none" xmlns="http://www.w3.org/2000/svg">
<path fill-rule="evenodd" clip-rule="evenodd" d="M7.96425 18H15.0356V14.614L12.1805 11.707C11.7965 11.316 11.7965 10.684 12.1805 10.293L15.0356 7.386V4H7.96425V7.386L10.8193 10.293C11.2033 10.684 11.2033 11.316 10.8193 11.707L7.96425 14.614V18ZM16.0177 20H6.98213C6.43999 20 6 19.553 6 19V14.2C6 13.935 6.10312 13.681 6.28776 13.493L8.7362 11L6.28776 8.507C6.10312 8.319 6 8.065 6 7.8V3C6 2.447 6.43999 2 6.98213 2H16.0177C16.5598 2 16.9998 2.447 16.9998 3V7.8C16.9998 8.065 16.8967 8.319 16.712 8.507L14.2636 11L16.712 13.493C16.8967 13.681 16.9998 13.935 16.9998 14.2V19C16.9998 19.553 16.5598 20 16.0177 20Z" fill="#5063EE"/>
<mask id="mask0_0_4185" style="mask-type:alpha" maskUnits="userSpaceOnUse" x="6" y="2" width="11" height="18">
<path fill-rule="evenodd" clip-rule="evenodd" d="M7.96425 18H15.0356V14.614L12.1805 11.707C11.7965 11.316 11.7965 10.684 12.1805 10.293L15.0356 7.386V4H7.96425V7.386L10.8193 10.293C11.2033 10.684 11.2033 11.316 10.8193 11.707L7.96425 14.614V18ZM16.0177 20H6.98213C6.43999 20 6 19.553 6 19V14.2C6 13.935 6.10312 13.681 6.28776 13.493L8.7362 11L6.28776 8.507C6.10312 8.319 6 8.065 6 7.8V3C6 2.447 6.43999 2 6.98213 2H16.0177C16.5598 2 16.9998 2.447 16.9998 3V7.8C16.9998 8.065 16.8967 8.319 16.712 8.507L14.2636 11L16.712 13.493C16.8967 13.681 16.9998 13.935 16.9998 14.2V19C16.9998 19.553 16.5598 20 16.0177 20Z" fill="white"/>
</mask>
<g mask="url(#mask0_0_4185)">
</g>
</svg>
