<svg width="22" height="22" viewBox="0 0 22 22" fill="none" xmlns="http://www.w3.org/2000/svg">
<path fill-rule="evenodd" clip-rule="evenodd" d="M5.54575 13.8447C4.43781 12.7359 3.82676 11.2626 3.82676 9.69524C3.82676 8.12787 4.43781 6.65368 5.54575 5.54575C6.65368 4.4369 8.12787 3.82676 9.69524 3.82676C11.2626 3.82676 12.7368 4.4369 13.8447 5.54575C16.1327 7.83285 16.1327 11.5567 13.8447 13.8447C11.5567 16.1318 7.83376 16.1327 5.54575 13.8447ZM20 18.7085L15.7409 14.4485C18.1157 11.4307 17.9184 7.03547 15.1362 4.25422C13.6831 2.80012 11.7503 2 9.69524 2C7.63921 2 5.70741 2.80012 4.25422 4.25422C2.80104 5.7065 2 7.63921 2 9.69524C2 11.7503 2.80104 13.6831 4.25422 15.1362C5.754 16.6369 7.72507 17.3859 9.69524 17.3859C11.3786 17.3859 13.0592 16.8342 14.4485 15.74L18.7085 20L20 18.7085Z" fill="#5063EE"/>
<mask id="mask0_0_4194" style="mask-type:alpha" maskUnits="userSpaceOnUse" x="2" y="2" width="18" height="18">
<path fill-rule="evenodd" clip-rule="evenodd" d="M5.54575 13.8447C4.43781 12.7359 3.82676 11.2626 3.82676 9.69524C3.82676 8.12787 4.43781 6.65368 5.54575 5.54575C6.65368 4.4369 8.12787 3.82676 9.69524 3.82676C11.2626 3.82676 12.7368 4.4369 13.8447 5.54575C16.1327 7.83285 16.1327 11.5567 13.8447 13.8447C11.5567 16.1318 7.83376 16.1327 5.54575 13.8447ZM20 18.7085L15.7409 14.4485C18.1157 11.4307 17.9184 7.03547 15.1362 4.25422C13.6831 2.80012 11.7503 2 9.69524 2C7.63921 2 5.70741 2.80012 4.25422 4.25422C2.80104 5.7065 2 7.63921 2 9.69524C2 11.7503 2.80104 13.6831 4.25422 15.1362C5.754 16.6369 7.72507 17.3859 9.69524 17.3859C11.3786 17.3859 13.0592 16.8342 14.4485 15.74L18.7085 20L20 18.7085Z" fill="white"/>
</mask>
<g mask="url(#mask0_0_4194)">
</g>
</svg>
