<svg width="22" height="22" viewBox="0 0 22 22" fill="none" xmlns="http://www.w3.org/2000/svg">
<path fill-rule="evenodd" clip-rule="evenodd" d="M14.411 10.1H11.9V5.4578H10.1V11.9H14.411V10.1ZM11 3.8C7.0301 3.8 3.8 7.0301 3.8 11C3.8 14.9699 7.0301 18.2 11 18.2C14.9708 18.2 18.2 14.9699 18.2 11C18.2 7.0301 14.9708 3.8 11 3.8ZM11 20C6.0374 20 2 15.9626 2 11C2 6.0374 6.0374 2 11 2C15.9635 2 20 6.0374 20 11C20 15.9626 15.9635 20 11 20Z" fill="#5063EE"/>
<mask id="mask0_0_4202" style="mask-type:alpha" maskUnits="userSpaceOnUse" x="2" y="2" width="18" height="18">
<path fill-rule="evenodd" clip-rule="evenodd" d="M14.411 10.1H11.9V5.4578H10.1V11.9H14.411V10.1ZM11 3.8C7.0301 3.8 3.8 7.0301 3.8 11C3.8 14.9699 7.0301 18.2 11 18.2C14.9708 18.2 18.2 14.9699 18.2 11C18.2 7.0301 14.9708 3.8 11 3.8ZM11 20C6.0374 20 2 15.9626 2 11C2 6.0374 6.0374 2 11 2C15.9635 2 20 6.0374 20 11C20 15.9626 15.9635 20 11 20Z" fill="white"/>
</mask>
<g mask="url(#mask0_0_4202)">
</g>
</svg>
