<svg width="22" height="22" viewBox="0 0 22 22" fill="none" xmlns="http://www.w3.org/2000/svg">
<path fill-rule="evenodd" clip-rule="evenodd" d="M16.9806 13.077C16.9806 9.811 14.2977 7.154 11 7.154C7.70226 7.154 5.01944 9.811 5.01944 13.077C5.01944 16.343 7.70226 19 11 19C14.2977 19 16.9806 16.343 16.9806 13.077ZM6.42194 6.589C7.72043 5.688 9.29761 5.154 11 5.154C12.7064 5.154 14.2866 5.69 15.5872 6.596C15.4741 5.897 14.7864 3 11 3C7.32462 3 6.56734 5.763 6.42194 6.589ZM19 13.077C19 17.446 15.4115 21 11 21C6.58854 21 3 17.446 3 13.077C3 11.435 3.50688 9.909 4.37423 8.642V6.731C4.5479 4.693 6.15133 1 11 1C15.8487 1 17.4521 4.693 17.6217 6.645L17.6258 8.642C18.4931 9.908 19 11.435 19 13.077ZM15.1944 14.077C14.637 14.077 14.1847 13.629 14.1847 13.077C14.1847 12.236 13.8525 11.445 13.2507 10.849C12.6479 10.252 11.8492 9.923 11 9.923C10.4426 9.923 9.99028 9.475 9.99028 8.923C9.99028 8.371 10.4426 7.923 11 7.923C12.3884 7.923 13.6949 8.46 14.6784 9.434C15.6619 10.408 16.2041 11.702 16.2041 13.077C16.2041 13.629 15.7517 14.077 15.1944 14.077Z" fill="#5063EE"/>
<mask id="mask0_0_4223" style="mask-type:alpha" maskUnits="userSpaceOnUse" x="3" y="1" width="16" height="20">
<path fill-rule="evenodd" clip-rule="evenodd" d="M16.9806 13.077C16.9806 9.811 14.2977 7.154 11 7.154C7.70226 7.154 5.01944 9.811 5.01944 13.077C5.01944 16.343 7.70226 19 11 19C14.2977 19 16.9806 16.343 16.9806 13.077ZM6.42194 6.589C7.72043 5.688 9.29761 5.154 11 5.154C12.7064 5.154 14.2866 5.69 15.5872 6.596C15.4741 5.897 14.7864 3 11 3C7.32462 3 6.56734 5.763 6.42194 6.589ZM19 13.077C19 17.446 15.4115 21 11 21C6.58854 21 3 17.446 3 13.077C3 11.435 3.50688 9.909 4.37423 8.642V6.731C4.5479 4.693 6.15133 1 11 1C15.8487 1 17.4521 4.693 17.6217 6.645L17.6258 8.642C18.4931 9.908 19 11.435 19 13.077ZM15.1944 14.077C14.637 14.077 14.1847 13.629 14.1847 13.077C14.1847 12.236 13.8525 11.445 13.2507 10.849C12.6479 10.252 11.8492 9.923 11 9.923C10.4426 9.923 9.99028 9.475 9.99028 8.923C9.99028 8.371 10.4426 7.923 11 7.923C12.3884 7.923 13.6949 8.46 14.6784 9.434C15.6619 10.408 16.2041 11.702 16.2041 13.077C16.2041 13.629 15.7517 14.077 15.1944 14.077Z" fill="white"/>
</mask>
<g mask="url(#mask0_0_4223)">
</g>
</svg>
