<svg width="22" height="22" viewBox="0 0 22 22" fill="none" xmlns="http://www.w3.org/2000/svg">
<path fill-rule="evenodd" clip-rule="evenodd" d="M11.9806 11.842H14.3253V13.842H10.0194V9.122H11.9806V11.842ZM11 19C7.66977 19 4.96126 16.238 4.96126 12.842C4.96126 9.446 7.66977 6.685 11 6.685C14.3302 6.685 17.0387 9.446 17.0387 12.842C17.0387 16.238 14.3302 19 11 19ZM11.9806 4.753V4H14.5097V2H7.49032V4H10.0194V4.753C6.07036 5.248 3 8.683 3 12.842C3 17.34 6.58912 21 11 21C15.4109 21 19 17.34 19 12.842C19 8.683 15.9296 5.248 11.9806 4.753Z" fill="#5063EE"/>
<mask id="mask0_0_4213" style="mask-type:alpha" maskUnits="userSpaceOnUse" x="3" y="2" width="16" height="19">
<path fill-rule="evenodd" clip-rule="evenodd" d="M11.9806 11.842H14.3253V13.842H10.0194V9.122H11.9806V11.842ZM11 19C7.66977 19 4.96126 16.238 4.96126 12.842C4.96126 9.446 7.66977 6.685 11 6.685C14.3302 6.685 17.0387 9.446 17.0387 12.842C17.0387 16.238 14.3302 19 11 19ZM11.9806 4.753V4H14.5097V2H7.49032V4H10.0194V4.753C6.07036 5.248 3 8.683 3 12.842C3 17.34 6.58912 21 11 21C15.4109 21 19 17.34 19 12.842C19 8.683 15.9296 5.248 11.9806 4.753Z" fill="white"/>
</mask>
<g mask="url(#mask0_0_4213)">
</g>
</svg>
