<svg width="22" height="22" viewBox="0 0 22 22" fill="none" xmlns="http://www.w3.org/2000/svg">
<path fill-rule="evenodd" clip-rule="evenodd" d="M11 3C13.4163 3 15.375 4.95875 15.375 7.375C15.375 9.79125 13.4163 11.75 11 11.75C8.58375 11.75 6.625 9.79125 6.625 7.375C6.625 4.95875 8.58375 3 11 3ZM15.7276 12.0569L14.0617 11.6404C12.013 13.114 9.52978 12.7852 7.93831 11.6404L6.27241 12.0569C4.93691 12.3908 4 13.5907 4 14.9673V17.5C4 18.3284 4.67156 19 5.5 19H16.5C17.3284 19 18 18.3284 18 17.5V14.9673C18 13.5907 17.0631 12.3908 15.7276 12.0569Z" fill="#5063EE"/>
<mask id="mask0_0_4236" style="mask-type:alpha" maskUnits="userSpaceOnUse" x="4" y="3" width="14" height="16">
<path fill-rule="evenodd" clip-rule="evenodd" d="M11 3C13.4163 3 15.375 4.95875 15.375 7.375C15.375 9.79125 13.4163 11.75 11 11.75C8.58375 11.75 6.625 9.79125 6.625 7.375C6.625 4.95875 8.58375 3 11 3ZM15.7276 12.0569L14.0617 11.6404C12.013 13.114 9.52978 12.7852 7.93831 11.6404L6.27241 12.0569C4.93691 12.3908 4 13.5907 4 14.9673V17.5C4 18.3284 4.67156 19 5.5 19H16.5C17.3284 19 18 18.3284 18 17.5V14.9673C18 13.5907 17.0631 12.3908 15.7276 12.0569Z" fill="white"/>
</mask>
<g mask="url(#mask0_0_4236)">
</g>
</svg>
