<svg width="22" height="22" viewBox="0 0 22 22" fill="none" xmlns="http://www.w3.org/2000/svg">
<path fill-rule="evenodd" clip-rule="evenodd" d="M11 21C5.486 21 1 16.514 1 11C1 5.486 5.486 1 11 1C12.359 1 13.679 1.269 14.92 1.798C16.406 2.432 17.731 3.43 18.754 4.685C19.077 5.081 19.049 5.655 18.691 6.019L10.292 14.543C10.104 14.734 9.828 14.887 9.579 14.842C9.314 14.842 9.06 14.736 8.872 14.549L5.293 10.971C4.903 10.581 4.903 9.947 5.293 9.557C5.684 9.166 6.317 9.166 6.708 9.557L9.574 12.422L16.602 5.29C15.891 4.592 15.051 4.028 14.136 3.638C13.144 3.214 12.088 3 11 3C6.589 3 3 6.589 3 11C3 15.411 6.589 19 11 19C15.411 19 19 15.411 19 11C19 10.448 19.448 10 20 10C20.552 10 21 10.448 21 11C21 16.514 16.514 21 11 21Z" fill="#5063EE"/>
<mask id="mask0_0_4257" style="mask-type:alpha" maskUnits="userSpaceOnUse" x="1" y="1" width="20" height="20">
<path fill-rule="evenodd" clip-rule="evenodd" d="M11 21C5.486 21 1 16.514 1 11C1 5.486 5.486 1 11 1C12.359 1 13.679 1.269 14.92 1.798C16.406 2.432 17.731 3.43 18.754 4.685C19.077 5.081 19.049 5.655 18.691 6.019L10.292 14.543C10.104 14.734 9.828 14.887 9.579 14.842C9.314 14.842 9.06 14.736 8.872 14.549L5.293 10.971C4.903 10.581 4.903 9.947 5.293 9.557C5.684 9.166 6.317 9.166 6.708 9.557L9.574 12.422L16.602 5.29C15.891 4.592 15.051 4.028 14.136 3.638C13.144 3.214 12.088 3 11 3C6.589 3 3 6.589 3 11C3 15.411 6.589 19 11 19C15.411 19 19 15.411 19 11C19 10.448 19.448 10 20 10C20.552 10 21 10.448 21 11C21 16.514 16.514 21 11 21Z" fill="white"/>
</mask>
<g mask="url(#mask0_0_4257)">
</g>
</svg>
