<svg width="22" height="22" viewBox="0 0 22 22" fill="none" xmlns="http://www.w3.org/2000/svg">
<path fill-rule="evenodd" clip-rule="evenodd" d="M12 9.863V8.863C12 8.31 11.552 7.863 11 7.863C10.448 7.863 10 8.31 10 8.863V9.863H7.126C7.572 8.139 9.14 6.863 11 6.863C12.86 6.863 14.428 8.139 14.874 9.863H12ZM11 4.863C7.691 4.863 5 7.554 5 10.863C5 11.416 5.448 11.863 6 11.863H16C16.552 11.863 17 11.416 17 10.863C17 7.554 14.309 4.863 11 4.863ZM18 15C18 16.654 16.654 18 15 18H7C5.346 18 4 16.654 4 15V7C4 5.345 5.346 4 7 4H15C16.654 4 18 5.345 18 7V15ZM15 2H7C4.243 2 2 4.243 2 7V15C2 17.757 4.243 20 7 20H15C17.757 20 20 17.757 20 15V7C20 4.243 17.757 2 15 2Z" fill="#5063EE"/>
<mask id="mask0_0_4245" style="mask-type:alpha" maskUnits="userSpaceOnUse" x="2" y="2" width="18" height="18">
<path fill-rule="evenodd" clip-rule="evenodd" d="M12 9.863V8.863C12 8.31 11.552 7.863 11 7.863C10.448 7.863 10 8.31 10 8.863V9.863H7.126C7.572 8.139 9.14 6.863 11 6.863C12.86 6.863 14.428 8.139 14.874 9.863H12ZM11 4.863C7.691 4.863 5 7.554 5 10.863C5 11.416 5.448 11.863 6 11.863H16C16.552 11.863 17 11.416 17 10.863C17 7.554 14.309 4.863 11 4.863ZM18 15C18 16.654 16.654 18 15 18H7C5.346 18 4 16.654 4 15V7C4 5.345 5.346 4 7 4H15C16.654 4 18 5.345 18 7V15ZM15 2H7C4.243 2 2 4.243 2 7V15C2 17.757 4.243 20 7 20H15C17.757 20 20 17.757 20 15V7C20 4.243 17.757 2 15 2Z" fill="white"/>
</mask>
<g mask="url(#mask0_0_4245)">
</g>
</svg>
