<svg width="24" height="24" viewBox="0 0 24 24" fill="none" xmlns="http://www.w3.org/2000/svg">
<mask id="mask0_0_3413" style="mask-type:alpha" maskUnits="userSpaceOnUse" x="4" y="6" width="16" height="12">
<path fill-rule="evenodd" clip-rule="evenodd" d="M19.625 16C19.8313 16 20 16.1687 20 16.375V17.625C20 17.8313 19.8313 18 19.625 18H4.375C4.16875 18 4 17.8313 4 17.625V6.375C4 6.16875 4.16875 6 4.375 6H5.625C5.83125 6 6 6.16875 6 6.375V16H19.625ZM10 14.625V12.375C10 12.1687 9.83125 12 9.625 12H8.375C8.16875 12 8 12.1687 8 12.375V14.625C8 14.8313 8.16875 15 8.375 15H9.625C9.83125 15 10 14.8313 10 14.625ZM16 10.375V14.625C16 14.8313 15.8313 15 15.625 15H14.375C14.1687 15 14 14.8313 14 14.625V10.375C14 10.1687 14.1687 10 14.375 10H15.625C15.8313 10 16 10.1687 16 10.375ZM13 14.625V8.375C13 8.16875 12.8313 8 12.625 8H11.375C11.1687 8 11 8.16875 11 8.375V14.625C11 14.8313 11.1687 15 11.375 15H12.625C12.8313 15 13 14.8313 13 14.625ZM19 7.375V14.625C19 14.8313 18.8313 15 18.625 15H17.375C17.1687 15 17 14.8313 17 14.625V7.375C17 7.16875 17.1687 7 17.375 7H18.625C18.8313 7 19 7.16875 19 7.375Z" fill="white"/>
</mask>
<g mask="url(#mask0_0_3413)">
<rect width="24" height="24" fill="#23253A"/>
</g>
</svg>
