<svg width="24" height="24" viewBox="0 0 24 24" fill="none" xmlns="http://www.w3.org/2000/svg">
<mask id="mask0_0_3177" style="mask-type:alpha" maskUnits="userSpaceOnUse" x="4" y="5" width="16" height="14">
<path fill-rule="evenodd" clip-rule="evenodd" d="M17.5554 9.8584L19.8776 11.877C20.0193 12 20.0415 12.2197 19.9248 12.3721L19.2165 13.2803C19.0998 13.4297 18.8887 13.4502 18.747 13.3271L12.2137 7.65234C12.0887 7.54688 11.9109 7.54688 11.7887 7.65234L5.25537 13.3271C5.11371 13.4502 4.9026 13.4297 4.78593 13.2803L4.0776 12.3721C3.96093 12.2227 3.98037 12 4.12204 11.877L11.1526 5.76855C11.6443 5.34082 12.3554 5.34082 12.847 5.76855L15.3332 7.92773V5.80078C15.3332 5.60742 15.4832 5.44922 15.6665 5.44922H17.222C17.4054 5.44922 17.5554 5.60742 17.5554 5.80078V9.8584ZM17.5554 17.8594V13.6611C17.5554 13.5557 17.5109 13.4561 17.4359 13.3887L12.2137 8.85352C12.0887 8.74805 11.9109 8.74805 11.7887 8.85352L6.56648 13.3887C6.48871 13.4561 6.44426 13.5557 6.44426 13.6611V17.8594C6.44426 18.249 6.74148 18.5625 7.11093 18.5625H10.3332C10.5165 18.5625 10.6665 18.4043 10.6665 18.2109V14.9297C10.6665 14.7363 10.8165 14.5781 10.9998 14.5781H12.9998C13.1832 14.5781 13.3332 14.7363 13.3332 14.9297V18.2109C13.3332 18.4043 13.4832 18.5625 13.6665 18.5625H16.8887C17.2582 18.5625 17.5554 18.249 17.5554 17.8594Z" fill="white"/>
</mask>
<g mask="url(#mask0_0_3177)">
<rect width="24" height="24" fill="#23253A"/>
</g>
</svg>
