<svg width="20" height="20" viewBox="0 0 20 20" fill="none" xmlns="http://www.w3.org/2000/svg">
<path fill-rule="evenodd" clip-rule="evenodd" d="M17 5.5V6.625C17 6.83125 16.8313 7 16.625 7H3.375C3.16875 7 3 6.83125 3 6.625V5.5C3 4.67188 3.67188 4 4.5 4H6V2.375C6 2.16875 6.16875 2 6.375 2H7.625C7.83125 2 8 2.16875 8 2.375V4H12V2.375C12 2.16875 12.1687 2 12.375 2H13.625C13.8313 2 14 2.16875 14 2.375V4H15.5C16.3281 4 17 4.67188 17 5.5ZM16.625 8H3.375C3.16875 8 3 8.16875 3 8.375V16.5C3 17.3281 3.67188 18 4.5 18H15.5C16.3281 18 17 17.3281 17 16.5V8.375C17 8.16875 16.8313 8 16.625 8Z" fill="#23253A"/>
<mask id="mask0_0_3009" style="mask-type:alpha" maskUnits="userSpaceOnUse" x="3" y="2" width="14" height="16">
<path fill-rule="evenodd" clip-rule="evenodd" d="M17 5.5V6.625C17 6.83125 16.8313 7 16.625 7H3.375C3.16875 7 3 6.83125 3 6.625V5.5C3 4.67188 3.67188 4 4.5 4H6V2.375C6 2.16875 6.16875 2 6.375 2H7.625C7.83125 2 8 2.16875 8 2.375V4H12V2.375C12 2.16875 12.1687 2 12.375 2H13.625C13.8313 2 14 2.16875 14 2.375V4H15.5C16.3281 4 17 4.67188 17 5.5ZM16.625 8H3.375C3.16875 8 3 8.16875 3 8.375V16.5C3 17.3281 3.67188 18 4.5 18H15.5C16.3281 18 17 17.3281 17 16.5V8.375C17 8.16875 16.8313 8 16.625 8Z" fill="white"/>
</mask>
<g mask="url(#mask0_0_3009)">
</g>
</svg>
