<svg width="24" height="24" viewBox="0 0 24 24" fill="none" xmlns="http://www.w3.org/2000/svg">
<mask id="mask0_0_3241" style="mask-type:alpha" maskUnits="userSpaceOnUse" x="6" y="4" width="12" height="16">
<path fill-rule="evenodd" clip-rule="evenodd" d="M14 6H16.5C17.3281 6 18 6.67188 18 7.5V18.5C18 19.3281 17.3281 20 16.5 20H7.5C6.67188 20 6 19.3281 6 18.5V7.5C6 6.67188 6.67188 6 7.5 6H10C10 4.89688 10.8969 4 12 4C13.1031 4 14 4.89688 14 6ZM8.25 16.5C8.25 16.9156 8.58437 17.25 9 17.25C9.41563 17.25 9.75 16.9156 9.75 16.5C9.75 16.0844 9.41563 15.75 9 15.75C8.58437 15.75 8.25 16.0844 8.25 16.5ZM9 14.25C8.58437 14.25 8.25 13.9156 8.25 13.5C8.25 13.0844 8.58437 12.75 9 12.75C9.41563 12.75 9.75 13.0844 9.75 13.5C9.75 13.9156 9.41563 14.25 9 14.25ZM8.25 10.5C8.25 10.9156 8.58437 11.25 9 11.25C9.41563 11.25 9.75 10.9156 9.75 10.5C9.75 10.0844 9.41563 9.75 9 9.75C8.58437 9.75 8.25 10.0844 8.25 10.5ZM12 5.25C12.4156 5.25 12.75 5.58438 12.75 6C12.75 6.41563 12.4156 6.75 12 6.75C11.5844 6.75 11.25 6.41563 11.25 6C11.25 5.58438 11.5844 5.25 12 5.25ZM15.75 17C15.8875 17 16 16.8875 16 16.75V16.25C16 16.1125 15.8875 16 15.75 16H11.25C11.1125 16 11 16.1125 11 16.25V16.75C11 16.8875 11.1125 17 11.25 17H15.75ZM16 13.75C16 13.8875 15.8875 14 15.75 14H11.25C11.1125 14 11 13.8875 11 13.75V13.25C11 13.1125 11.1125 13 11.25 13H15.75C15.8875 13 16 13.1125 16 13.25V13.75ZM15.75 11C15.8875 11 16 10.8875 16 10.75V10.25C16 10.1125 15.8875 10 15.75 10H11.25C11.1125 10 11 10.1125 11 10.25V10.75C11 10.8875 11.1125 11 11.25 11H15.75Z" fill="white"/>
</mask>
<g mask="url(#mask0_0_3241)">
<rect width="24" height="24" fill="#23253A"/>
</g>
</svg>
