<svg width="20" height="44" viewBox="0 0 20 44" fill="none" xmlns="http://www.w3.org/2000/svg">
<path fill-rule="evenodd" clip-rule="evenodd" d="M15.8955 12.3565C16.7985 11.1376 17.3333 9.63033 17.3333 8.00033C17.3333 3.95674 14.0436 0.666992 10 0.666992C5.95642 0.666992 2.66667 3.95674 2.66667 8.00033C2.66667 9.63033 3.2015 11.1376 4.1045 12.3565C1.71542 13.2068 0 15.4897 0 18.167V26.917C0 28.9787 1.42008 30.715 3.33333 31.1992V38.917C3.33333 41.3523 5.31467 43.3337 7.75 43.3337H12.25C14.6853 43.3337 16.6667 41.3523 16.6667 38.917V31.1992C18.5799 30.7149 20 28.9787 20 26.917V18.167C20 15.4897 18.2846 13.2068 15.8955 12.3565ZM10 3.33366C12.5773 3.33366 14.6667 5.42299 14.6667 8.00033C14.6667 10.5777 12.5773 12.667 10 12.667C7.42267 12.667 5.33333 10.5777 5.33333 8.00033C5.33333 5.42299 7.42267 3.33366 10 3.33366ZM17.3333 26.917C17.3333 27.8835 16.5498 28.667 15.5833 28.667H14V38.917C14 39.8835 13.2165 40.667 12.25 40.667H7.75C6.7835 40.667 6 39.8835 6 38.917V28.667H4.41667C3.45017 28.667 2.66667 27.8835 2.66667 26.917V18.167C2.66667 16.234 4.23367 14.667 6.16667 14.667H6.94667C8.83925 15.5372 11.0792 15.5748 13.0533 14.667H13.8333C15.7663 14.667 17.3333 16.234 17.3333 18.167V26.917Z" fill="#E9EAF2"/>
</svg>
